<svg xmlns="http://www.w3.org/2000/svg" width="256" height="256"><g stroke-width="0" stroke-miterlimit="10"><path d="M188.294 108.091h-1.413c-3.325 0-6.46.807-9.226 2.234-1.615-9.523-9.925-16.798-19.9-16.798h-1.41a20.075 20.075 0 00-10.22 2.782c-2.87-7.655-10.263-13.117-18.91-13.117h-1.41a20.09 20.09 0 00-8.944 2.09V54.288c0-11.128-9.054-20.184-20.184-20.184h-1.41c-11.128 0-20.185 9.054-20.185 20.184v77.033l-9.776 7.422c-7.413 5.628-12.114 13.816-13.235 23.056-1.118 9.242 1.486 18.318 7.34 25.554l29.797 36.836v14.817c0 8.436 6.862 15.298 15.297 15.298h73.999c8.436 0 15.298-6.862 15.298-15.298l.002-14.075c9.47-11.81 14.663-26.507 14.663-41.613V128.27c.008-11.125-9.045-20.179-20.173-20.179zm8.941 75.23c0 13.133-4.729 25.894-13.313 35.93a5.6 5.6 0 00-1.35 3.654v16.101a4.06 4.06 0 01-4.057 4.058h-74.001a4.061 4.061 0 01-4.058-4.058V222.2a5.62 5.62 0 00-1.25-3.535l-31.05-38.382c-3.923-4.853-5.674-10.937-4.921-17.133.75-6.193 3.903-11.684 8.871-15.458l2.979-2.259v18.782c0 3.102 2.518 5.62 5.62 5.62s5.62-2.518 5.62-5.62V54.288c0-4.932 4.012-8.944 8.944-8.944h1.41c4.932 0 8.945 4.012 8.945 8.944v49.093l.03 40.833a5.62 5.62 0 005.62 5.614h.004a5.62 5.62 0 005.617-5.626l-.031-40.823c0-4.93 4.013-8.942 8.944-8.942h1.41c4.932 0 8.945 4.013 8.945 8.942v10.34l.03 30.497a5.62 5.62 0 005.62 5.615h.006a5.62 5.62 0 005.615-5.626l-.031-30.491c0-4.929 4.013-8.942 8.944-8.942h1.41c4.932 0 8.945 4.013 8.945 8.942v12.931c-.022.203-.062.402-.059.61l.03 16.964a5.62 5.62 0 005.62 5.609h.012a5.62 5.62 0 005.609-5.631l-.028-15.351c.02-.191.056-.374.056-.57 0-4.932 4.013-8.945 8.944-8.945h1.414c4.928 0 8.941 4.013 8.941 8.944v55.045z"/><path d="M137.222 54.828a5.622 5.622 0 01-5.62-5.62c0-20.16-16.402-36.561-36.56-36.561-20.162 0-36.564 16.402-36.564 36.56 0 3.103-2.518 5.62-5.62 5.62s-5.62-2.517-5.62-5.62c0-26.357 21.446-47.8 47.803-47.8 26.358 0 47.804 21.443 47.804 47.8a5.623 5.623 0 01-5.623 5.62z"/></g></svg>