<svg width="46" height="46" fill="none" xmlns="http://www.w3.org/2000/svg"><path d="M20.666 9h7l7.677-7.7a2.332 2.332 0 013.313 0l6.02 6.043a2.333 2.333 0 010 3.29L39.333 16H20.666v4.666a2.334 2.334 0 01-4.666 0v-7A4.667 4.667 0 0120.666 9zm-14 11.666V30l-5.343 5.343a2.333 2.333 0 000 3.29l6.02 6.043a2.334 2.334 0 003.313 0l10.01-10.01H30a2.333 2.333 0 002.333-2.333V30h2.333A2.334 2.334 0 0037 27.666v-2.333h2.333A2.333 2.333 0 0041.666 23v-2.334H25.333V23a4.667 4.667 0 01-4.667 4.666H16A4.666 4.666 0 0111.333 23v-7l-4.667 4.666z" fill="#D9D6D6"/></svg>