<svg width="95" height="92" fill="none" xmlns="http://www.w3.org/2000/svg"><path d="M40.22 35.723c3.09 0 5.596-2.442 5.596-5.456 0-3.012-2.506-5.455-5.597-5.455-3.09 0-5.596 2.442-5.596 5.455 0 3.014 2.505 5.456 5.596 5.456z" fill="#fff"/><path d="M48.615 0c-12.807 0-24.41 5.069-32.838 13.272a5.377 5.377 0 01-.286 1.316 5.864 5.864 0 011.86-.28c1.914 0 3.94.745 5.04 1.281 7.058-5.912 16.217-9.484 26.224-9.484 22.326 0 40.424 17.767 40.424 39.686 0 12.705-6.082 24.013-15.54 31.278l-.002.001c-14.4 8.526-26.203 3.402-32.736-4.092a21.611 21.611 0 01-3.473-5.517c-8.984-20.49 2.688-22.104 9.155-22.645a30.592 30.592 0 005.412-.943c13.512-3.646 16.568-11.533 16.614-11.656-11.482 11.7-24.498 4.098-33.292 7.767-.36.15-.725.288-1.08.445-10.537 4.648-9.712 18.503.253 32.02 4.294 5.823 8.796 10.051 12.557 12.991 5.11 3.993 8.853 5.607 8.853 5.607 22.369-3.376 39.497-22.353 39.497-45.256C95.257 20.5 74.375 0 48.615 0z" fill="#fff"/><path d="M34.354 74.822c-4.256-4.398-7.337-9.602-9.462-15.459.412 6.915 3.694 14.849 8.594 23.238-14.83-5.879-25.295-20.145-25.295-36.812a38.962 38.962 0 013.536-16.26c-1.011-1.988-1.854-4.154-2.542-6.527a36.33 36.33 0 00-1.107.121 44.931 44.931 0 00-6.107 22.666c0 22.085 15.925 40.517 37.115 44.835l.25.052a68.745 68.745 0 01-2.83-7.011c-1.004-2.986-1.735-5.934-2.152-8.843zm34.11-43.711s-1.996-4.046.621-6.3c2.618-2.255 5.928-2.155 7.848-4.582.536 1.969 1.188 7.129-.93 9.562-2.12 2.433-4.666 2.426-5.88 2.967.501-.541 4.242-4.349 4.364-7.266-.668.789-2.718 3.892-6.023 5.619zm2.182 5.309s1.203-2.573 3.377-2.247c2.175.325 3.46 1.926 5.439 1.854-.762 1.047-3.06 3.433-5.121 3.415-2.063-.018-3.086-1.222-3.843-1.578.47.018 3.869.248 5.366-.87-.663.005-3.029.29-5.218-.574zm-6.744-3.812s-2.893.19-3.633-1.829c-.74-2.02.094-3.882-.913-5.545 1.307.156 4.554.991 5.517 2.769.963 1.777.362 3.226.403 4.045-.207-.412-1.615-3.436-3.336-4.188.319.564 1.7 2.459 1.962 4.748z" fill="#fff"/><path d="M22.494 51.312c.98-7.883 5.833-12.386 14.26-13.77-13.375-1.752-22.497-7.75-26.787-18.576 1.913 9.23 6.129 17.08 15.325 21.954-1.542 2.446-2.725 5.493-2.798 10.392zm-11.35-34.133s3.807-2.27 2.735-5.511c-1.073-3.242-3.886-4.709-4.268-7.75-1.49 1.426-4.598 5.254-4.048 8.401.549 3.145 3.413 5.19 3.413 5.19s-1.282-5.565.14-8.135c.16 1.011.09 4.676 2.028 7.805zM8.03 20.596s-.133-2.825-2.275-3.312c-2.142-.488-3.947.53-5.755-.257.306 1.248 1.525 4.3 3.445 5.031 1.92.732 3.33-.013 4.17-.067-.444-.155-3.686-1.176-4.647-2.759.613.245 2.7 1.368 5.062 1.364zm5.712.011s2.231 1.807 4.044.592c1.813-1.215 2.256-3.2 4.07-3.973-1.153-.62-4.287-1.796-6.135-.906-1.848.89-2.233 2.409-2.758 3.05.416-.217 3.375-1.864 5.221-1.49-.597.274-2.856 1.021-4.442 2.727z" fill="#fff"/></svg>